<svg width="341" height="102" viewBox="0 0 341 102" fill="none" xmlns="http://www.w3.org/2000/svg">
<path d="M0.3 100V23H15L16 31C17.6 28.4 19.8333 26.3 22.7 24.7C25.5667 23.0333 28.7 22.2 32.1 22.2C39.1667 22.2 45.2 25 50.2 30.6C55.2 36.1333 57.7 42.7667 57.7 50.5C57.7 58.3667 55.2 65.1 50.2 70.7C45.2 76.2333 39.1667 79 32.1 79C28.8333 79 25.8 78.2333 23 76.7C20.2667 75.1667 18.1 73.1667 16.5 70.7V100H0.3ZM20.2 59.4C22.6 61.8 25.5333 63 29 63C32.4667 63 35.3667 61.8 37.7 59.4C40.1 57 41.3 54.0333 41.3 50.5C41.3 47.1 40.1 44.2 37.7 41.8C35.3 39.3333 32.4 38.1 29 38.1C25.5333 38.1 22.5667 39.3333 20.1 41.8C17.7 44.2 16.5 47.1 16.5 50.5C16.5 54.0333 17.7333 57 20.2 59.4ZM74.6273 30.5C80.1607 24.9667 86.8273 22.2 94.6273 22.2C102.427 22.2 109.094 25 114.627 30.6C120.227 36.1333 123.027 42.7667 123.027 50.5C123.027 58.3667 120.227 65.1 114.627 70.7C109.094 76.2333 102.427 79 94.6273 79C86.7607 79 80.0607 76.2333 74.5273 70.7C69.0607 65.1 66.3273 58.3667 66.3273 50.5C66.3273 42.7 69.094 36.0333 74.6273 30.5ZM82.7273 50.5C82.7273 53.8333 83.894 56.6667 86.2273 59C88.494 61.3333 91.294 62.5 94.6273 62.5C97.9607 62.5 100.761 61.3333 103.027 59C105.361 56.6667 106.527 53.8333 106.527 50.5C106.527 47.2333 105.361 44.4667 103.027 42.2C100.761 39.8667 97.9607 38.7 94.6273 38.7C91.294 38.7 88.4607 39.8667 86.1273 42.2C83.8607 44.4667 82.7273 47.2333 82.7273 50.5ZM140.981 59.5C142.648 61.0333 144.848 62.2333 147.581 63.1C150.315 63.9667 152.915 64.4 155.381 64.4C159.581 64.4 161.681 63.5 161.681 61.7C161.681 60.7667 160.648 60 158.581 59.4C156.515 58.8 154.015 58.1667 151.081 57.5C148.215 56.7667 145.315 55.8333 142.381 54.7C139.448 53.5 136.948 51.5333 134.881 48.8C132.815 46.0667 131.781 42.7 131.781 38.7C131.781 33.6333 133.748 29.5667 137.681 26.5C141.681 23.3667 146.948 21.8 153.481 21.8C163.748 21.8 171.481 24.8333 176.681 30.9L167.081 40.6C165.681 39.1333 163.681 38.0333 161.081 37.3C158.548 36.5 156.148 36.1 153.881 36.1C149.948 36.1 147.981 36.9667 147.981 38.7C147.981 39.4333 148.715 40.0667 150.181 40.6C151.715 41.1333 153.581 41.6 155.781 42C157.981 42.4 160.381 43.0333 162.981 43.9C165.648 44.7667 168.081 45.8333 170.281 47.1C172.481 48.3 174.315 50.1333 175.781 52.6C177.315 55 178.081 57.8333 178.081 61.1C178.081 67.1667 175.948 71.7667 171.681 74.9C167.481 77.9667 162.048 79.5 155.381 79.5C150.781 79.5 146.181 78.7 141.581 77.1C136.981 75.5 133.148 73.1667 130.081 70.1L140.981 59.5ZM193.671 23L196.071 5H209.271V23H221.571V37.3H209.271V53.6C209.271 60.2 212.138 63.5 217.871 63.5C219.138 63.5 220.371 63.3 221.571 62.9L225.571 77.3C222.638 78.5 219.238 79.1 215.371 79.1C208.838 79.1 203.471 77.1333 199.271 73.2C195.138 69.2667 193.071 62.7667 193.071 53.7V37.3H185.871V23H193.671ZM252.523 78H236.323V-3.09944e-06H252.523V78ZM265.195 84.9C266.929 85.5667 268.862 85.9 270.995 85.9C273.462 85.9 275.662 85.0333 277.595 83.3C279.529 81.6333 280.995 79.1667 281.995 75.9L261.295 23H278.695L289.195 53.7L299.295 23H316.495L297.995 78C295.195 86.3333 291.662 92.2667 287.395 95.8C283.129 99.4 277.929 101.2 271.795 101.2C267.795 101.2 264.095 100.533 260.695 99.2L265.195 84.9ZM325.131 64.3C326.798 62.6333 328.865 61.8 331.331 61.8C333.731 61.8 335.765 62.6667 337.431 64.4C339.165 66.0667 340.031 68.1333 340.031 70.6C340.031 73 339.165 75.0667 337.431 76.8C335.765 78.5333 333.731 79.4 331.331 79.4C328.865 79.4 326.765 78.5333 325.031 76.8C323.365 75.0667 322.531 73 322.531 70.6C322.531 68.1333 323.398 66.0333 325.131 64.3Z" fill="white"/>
</svg>
